<?xml version="1.0" standalone="no"?>
<!DOCTYPE svg PUBLIC "-//W3C//DTD SVG 20010904//EN"
 "http://www.w3.org/TR/2001/REC-SVG-20010904/DTD/svg10.dtd">
<svg version="1.0" xmlns="http://www.w3.org/2000/svg"
 width="75.000000pt" height="23.000000pt" viewBox="0 0 75.000000 23.000000"
 preserveAspectRatio="xMidYMid meet">
<metadata>
Created by potrace 1.10, written by Peter Selinger 2001-2011
</metadata>
<g transform="translate(0.000000,23.000000) scale(0.100000,-0.100000)"
fill="#dd8104" stroke="none">
<path d="M0 115 l0 -115 164 0 164 0 35 48 c18 26 37 52 40 58 4 6 -12 37 -34
68 l-40 56 -165 0 -164 0 0 -115z m154 49 c22 -8 10 -24 -19 -24 -24 0 -36
-16 -27 -37 2 -7 14 -13 26 -12 11 0 15 3 9 6 -20 8 -15 23 7 23 14 0 20 -7
20 -24 0 -36 -46 -49 -74 -20 -43 42 2 110 58 88z m136 -14 c11 -11 20 -27 20
-35 0 -8 -9 -24 -20 -35 -11 -11 -27 -20 -35 -20 -19 0 -55 36 -55 55 0 8 9
24 20 35 11 11 27 20 35 20 8 0 24 -9 35 -20z"/>
<path d="M234 125 c-4 -9 -2 -21 4 -27 15 -15 44 -1 40 19 -4 23 -36 29 -44 8z"/>
<path d="M430 113 l0 -112 28 4 c15 2 86 4 157 4 l130 1 0 105 0 105 -40 2
c-22 1 -93 2 -157 3 l-118 0 0 -112z m120 2 c0 -48 -2 -55 -20 -55 -18 0 -20
7 -20 55 0 48 2 55 20 55 18 0 20 -7 20 -55z m130 35 c0 -11 -7 -20 -15 -20
-10 0 -15 -11 -15 -35 0 -31 -3 -35 -25 -35 -22 0 -25 4 -25 35 0 24 -5 35
-15 35 -8 0 -15 9 -15 20 0 18 7 20 55 20 48 0 55 -2 55 -20z"/>
</g>
</svg>
