<svg xmlns="http://www.w3.org/2000/svg" xmlns:xlink="http://www.w3.org/1999/xlink"><defs><path id="havga" d="M1358.75 579.03h-1.62c-1.82 0-3 1.23-3 3.13v1.45h-1.63a.26.26 0 0 0-.25.26v2.1c0 .14.11.25.25.25h1.63v5.3c0 .14.12.25.26.25h2.12c.14 0 .26-.11.26-.26v-5.29h1.9c.14 0 .25-.11.25-.26v-2.1a.27.27 0 0 0-.07-.18.25.25 0 0 0-.18-.07h-1.9v-1.23c0-.59.13-.89.88-.89h1.1c.14 0 .25-.11.25-.26v-1.94a.26.26 0 0 0-.25-.26z"/><path id="b4vfa" d="M1394.67 580.72c-.48.3-1 .52-1.57.64a2.37 2.37 0 0 0-1.8-.84c-1.35 0-2.45 1.2-2.45 2.66 0 .2.02.4.06.6a6.84 6.84 0 0 1-5.07-2.77 2.8 2.8 0 0 0 .76 3.54c-.4-.02-.78-.14-1.12-.33v.03c0 1.28.85 2.35 1.98 2.6a2.32 2.32 0 0 1-1.11.04 2.5 2.5 0 0 0 2.3 1.84 4.72 4.72 0 0 1-3.65 1.1 6.61 6.61 0 0 0 3.77 1.2c4.53 0 7-4.04 7-7.55v-.34c.48-.38.9-.84 1.23-1.37-.44.2-.92.35-1.41.41.5-.32.9-.85 1.08-1.46z"/></defs><symbol id="burger_menu" viewBox="0 0 18 11">
<path d="M294.781,12H309v1.5H294.781V12Zm3.188,4.688H309v1.625H297.969V16.687ZM291,21.5h18V23H291V21.5Z" transform="translate(-291 -12)"/>
</symbol><symbol id="facebook" viewBox="0 0 7 13"><g><g transform="translate(-1352 -579)"><use xlink:href="#havga"/></g></g></symbol><symbol id="twitter" viewBox="0 0 12 11"><g><g transform="translate(-1383 -580)"><use xlink:href="#b4vfa"/></g></g></symbol></svg>